<svg xmlns="http://www.w3.org/2000/svg" viewBox="0 0 100 100">
  <defs>
    <linearGradient id="aevr-grad" x1="0%" y1="100%" x2="100%" y2="0%">
      <stop offset="0%" stop-color="#008489" />
      <stop offset="100%" stop-color="#00b3b0" />
    </linearGradient>
  </defs>
  <!-- Beautiful abstract luxury monogram A + home arch structure -->
  <path d="M 50 12 L 85 45 C 89 49, 89 55, 85 59 L 80 64 C 76 68, 70 68, 66 64 L 50 48 L 34 64 C 30 68, 24 68, 20 64 L 15 59 C 11 55, 11 49, 15 45 Z" fill="url(#aevr-grad)" />
  <path d="M 50 38 L 72 60 L 72 78 C 72 84, 67 89, 61 89 L 39 89 C 33 89, 28 84, 28 78 L 28 60 Z" fill="none" stroke="url(#aevr-grad)" stroke-width="8" stroke-linecap="round" stroke-linejoin="round" />
  <path d="M 40 70 C 40 70, 50 62, 50 62 C 50 62, 60 70, 60 70" fill="none" stroke="url(#aevr-grad)" stroke-width="6" stroke-linecap="round" />
</svg>